<svg width="24" height="24" viewBox="0 0 24 24" fill="none" xmlns="http://www.w3.org/2000/svg">
<path d="M10.1723 6.08813C9.8793 5.79517 9.40445 5.79517 9.11148 6.08813L3.73211 11.4675C3.71383 11.4858 3.69648 11.505 3.68008 11.5252C3.67492 11.5313 3.6707 11.5378 3.66555 11.5444C3.6557 11.5575 3.64586 11.5702 3.63648 11.5838C3.62992 11.5936 3.6243 11.6039 3.6182 11.6138C3.61164 11.6245 3.60508 11.6353 3.59898 11.6466C3.59289 11.6578 3.58773 11.6691 3.58258 11.6808C3.57742 11.6916 3.57227 11.7019 3.56758 11.7127C3.56242 11.7249 3.55867 11.737 3.55445 11.7492C3.5507 11.76 3.54648 11.7708 3.5432 11.7816C3.53898 11.7952 3.53617 11.8088 3.53289 11.8219C3.53055 11.8322 3.52773 11.842 3.52539 11.8524C3.52164 11.8702 3.5193 11.888 3.51742 11.9058C3.51648 11.9124 3.51555 11.9184 3.51461 11.925C3.50945 11.9752 3.50945 12.0258 3.51461 12.0759C3.51508 12.0788 3.51555 12.0816 3.51602 12.0844C3.51836 12.1059 3.52164 12.1275 3.52586 12.1486C3.52727 12.1547 3.52914 12.1608 3.53055 12.1669C3.53477 12.1847 3.53898 12.2025 3.54414 12.2199C3.54602 12.2259 3.54836 12.232 3.5507 12.2386C3.55633 12.2555 3.56242 12.2728 3.56945 12.2897C3.5718 12.2949 3.57414 12.2995 3.57648 12.3047C3.58445 12.322 3.59242 12.3394 3.60133 12.3563C3.6032 12.3595 3.60555 12.3628 3.60742 12.3661C3.61727 12.3839 3.62805 12.4017 3.6393 12.4191C3.64023 12.4205 3.64117 12.4219 3.64211 12.4233C3.66789 12.4613 3.69742 12.4974 3.7307 12.5306L9.11242 17.9124C9.25867 18.0586 9.45086 18.1322 9.64258 18.1322C9.8343 18.1322 10.0265 18.0591 10.1727 17.9124C10.4657 17.6194 10.4657 17.1445 10.1727 16.8516L6.07117 12.75H19.7409C20.1552 12.75 20.4909 12.4144 20.4909 12C20.4909 11.5856 20.1552 11.25 19.7409 11.25H6.07117L10.1723 7.14845C10.4652 6.85595 10.4652 6.3811 10.1723 6.08813Z" fill="white"/>
</svg>
